<?xml version="1.0" standalone="no"?>
<!DOCTYPE svg PUBLIC "-//W3C//DTD SVG 20010904//EN"
 "http://www.w3.org/TR/2001/REC-SVG-20010904/DTD/svg10.dtd">
<svg version="1.0" xmlns="http://www.w3.org/2000/svg"
 width="783.000000pt" height="783.000000pt" viewBox="0 0 783.000000 783.000000"
 preserveAspectRatio="xMidYMid meet">
<metadata>
Created by potrace 1.14, written by Peter Selinger 2001-2017
</metadata>
<g transform="translate(0.000000,783.000000) scale(0.100000,-0.100000)"
fill="#000000" stroke="none">
<path d="M6080 6782 c-41 -64 -111 -173 -155 -242 -97 -149 -157 -242 -295
-455 -118 -183 -154 -239 -272 -420 -110 -170 -638 -985 -753 -1164 -49 -77
-188 -292 -308 -478 -120 -186 -223 -345 -228 -353 -11 -18 -43 15 -399 399
-58 63 -121 130 -140 151 -19 21 -78 84 -130 140 -110 118 -128 138 -269 289
-99 106 -105 111 -121 94 -9 -10 -63 -61 -120 -113 -56 -52 -117 -108 -135
-125 -69 -65 -252 -235 -281 -261 -53 -49 -256 -238 -284 -264 -22 -21 -83
-78 -285 -265 -18 -16 -83 -77 -145 -135 -62 -58 -124 -116 -139 -129 -58 -53
-247 -228 -282 -261 -40 -38 -226 -211 -349 -325 -41 -38 -95 -88 -120 -111
-25 -23 -64 -60 -86 -81 -23 -21 -90 -83 -149 -138 -60 -55 -123 -113 -140
-130 -126 -116 -253 -235 -280 -260 -17 -16 -71 -66 -118 -110 -48 -44 -87
-82 -87 -86 0 -3 12 -19 28 -35 15 -17 72 -78 127 -138 55 -59 116 -124 135
-145 19 -21 78 -84 130 -140 52 -57 111 -120 130 -140 19 -21 85 -91 145 -157
61 -65 139 -149 175 -187 l66 -69 94 124 c52 67 258 334 458 593 199 259 393
510 430 558 37 49 72 94 77 100 6 7 116 149 245 317 129 168 239 310 245 317
5 6 57 72 114 147 57 75 107 136 110 136 4 0 39 -30 78 -67 39 -38 102 -97
140 -132 37 -36 138 -131 223 -212 85 -81 175 -166 200 -189 25 -23 113 -106
195 -185 83 -78 166 -157 185 -175 19 -18 103 -97 185 -175 248 -236 320 -303
322 -302 0 1 74 126 163 277 89 151 199 338 245 415 45 77 90 154 99 170 9 17
47 82 85 145 127 215 603 1025 623 1060 11 19 24 40 28 45 4 6 19 30 32 55 14
25 54 95 90 155 239 404 504 855 520 885 11 19 23 39 28 43 4 5 24 -40 43
-100 251 -769 320 -982 385 -1178 42 -126 77 -234 78 -240 4 -20 106 -330 110
-334 3 -4 101 70 371 279 39 30 131 101 205 157 401 309 473 366 470 375 -2 6
-28 54 -59 107 -31 53 -69 121 -86 151 -16 30 -36 62 -43 71 -8 8 -14 18 -14
22 0 3 -13 28 -29 55 -15 26 -39 68 -53 93 -14 24 -101 177 -195 339 -93 162
-277 482 -408 710 -131 228 -263 458 -293 510 -30 52 -66 115 -80 140 -14 25
-73 128 -132 230 -59 102 -120 208 -135 235 -38 69 -136 235 -138 235 -1 -1
-36 -53 -77 -118z"/>
</g>
</svg>
